<svg width="1395" height="815" viewBox="0 0 1395 815" fill="none" xmlns="http://www.w3.org/2000/svg">
<path d="M1083.69 562.554C1086.59 560.277 1089.52 558.041 1092.38 555.711C1110.18 541.182 1130.02 530.365 1151.79 523.129C1162.78 519.472 1173.95 516.328 1185 512.84C1190.88 510.985 1196.76 509.068 1202.51 506.869C1209.44 504.222 1216.17 501.127 1221.71 495.968C1222.24 495.47 1222.88 495.057 1223.53 494.72C1224.72 494.098 1226.06 494.059 1226.94 495.063C1227.7 495.915 1228.56 497.201 1228.43 498.18C1228.19 500.09 1227.44 501.979 1226.66 503.776C1222.6 513.194 1216.58 521.288 1209.63 528.74C1202.2 536.711 1193.86 543.665 1185.39 550.499C1174.96 558.923 1165.64 568.392 1158.37 579.765C1154.35 586.061 1151.2 592.746 1149.61 600.051C1148.92 603.152 1148.52 606.403 1148.6 609.57C1148.73 615.399 1151.65 618.644 1157.34 619.823C1164.61 621.332 1171.19 619.518 1176.61 614.66C1180.44 611.225 1184.02 607.342 1187.01 603.156C1191.31 597.125 1195.25 590.852 1198.83 584.366C1203.71 575.507 1208.09 566.368 1212.7 557.359C1220.36 542.381 1228.75 527.853 1239.54 514.859C1260.17 490.03 1284.88 470.256 1313.54 455.42C1325.21 449.374 1337.68 445.445 1350.2 441.641C1357.52 439.421 1364.88 437.331 1372.13 434.893C1377.79 432.99 1383.55 432.007 1389.44 431.244C1396.04 430.391 1402.57 429.02 1409.11 427.841C1409.83 427.714 1410.53 427.417 1411.21 427.113C1412.39 426.586 1413.55 425.721 1413.08 424.364C1412.73 423.331 1411.77 422.206 1410.79 421.775C1409.78 421.337 1408.4 421.521 1407.23 421.728C1401.39 422.746 1395.58 423.831 1389.78 424.982C1386.83 425.57 1384.62 424.839 1382.56 422.522C1372.46 411.158 1370.04 398.28 1374.54 383.912C1376.95 376.231 1381.3 369.667 1386.28 363.49C1398.93 347.81 1414.27 335.728 1433.18 328.411C1441.01 325.385 1448.79 322.278 1456.54 319.034C1461.77 316.844 1466.95 314.515 1472.01 311.955C1480.82 307.495 1486.3 300.024 1489.96 291.081C1491.98 286.129 1492.1 281.026 1491.12 275.794C1490.06 270.222 1489.33 264.596 1488.31 259.018C1486.93 251.465 1488.37 244.312 1491.04 237.282C1494.35 228.603 1499.43 221.081 1505.97 214.538C1518.09 202.401 1531.56 192.102 1546.91 184.307C1554.83 180.284 1562.7 176.151 1570.48 171.864C1584.38 164.207 1597.11 154.846 1609.17 144.597C1620.57 134.909 1629.68 123.256 1637.24 110.39C1638.73 107.851 1639.6 104.953 1641.02 102.369C1641.83 100.917 1643.03 99.5977 1644.31 98.5347C1645.64 97.4242 1648.04 98.4155 1648.5 100.097C1648.75 101.042 1648.89 102.027 1649.01 102.999C1651.03 118.804 1650.83 134.56 1647.09 150.092C1642.16 170.518 1631.64 187.925 1617.31 203.069C1611.37 209.344 1605.06 215.275 1598.9 221.335C1592.54 227.587 1586.73 234.302 1581.87 241.793C1580.26 244.27 1578.66 246.802 1577.46 249.487C1573.04 259.412 1573.12 268.991 1579.55 278.273C1584.6 285.578 1589.37 293.088 1593.97 300.688C1598.59 308.317 1602.1 316.465 1604.26 325.175C1607.69 338.96 1607.34 352.548 1602.52 365.968C1593.83 390.133 1578.39 408.804 1556.54 422.149C1553.63 423.925 1550.34 425.223 1547.05 426.177C1529.75 431.198 1512.32 435.631 1494.46 438.24C1491.8 438.628 1489.15 439.327 1486.6 440.169C1485.93 440.389 1485.18 441.739 1485.27 442.475C1485.37 443.216 1486.4 444.37 1487.1 444.423C1490.01 444.662 1493.04 444.999 1495.89 444.496C1505.35 442.813 1514.79 440.934 1524.17 438.863C1530.67 437.438 1537.08 435.625 1543.52 433.913C1545.93 433.271 1547.98 433.718 1549.48 435.693C1551.41 438.23 1553.62 440.685 1554.96 443.526C1561 456.337 1562.17 469.517 1557.46 483.093C1554.1 492.813 1549.11 501.488 1542.04 508.967C1535.23 516.17 1527.83 522.726 1519.74 528.414C1502.96 540.184 1486.05 551.761 1469.26 563.514C1461.58 568.892 1453.95 574.35 1446.49 580.038C1439.6 585.287 1433.35 591.272 1427.64 597.793C1423.05 603.02 1419.21 608.737 1416.25 615.046C1413.88 620.095 1413.31 625.385 1413.4 630.912C1413.49 637.162 1420.32 643.652 1427.75 642.792C1430.66 642.456 1433.6 641.674 1436.32 640.579C1449 635.481 1460.82 628.826 1471.03 619.666C1474.86 616.223 1478.15 612.154 1481.62 608.326C1482.78 607.049 1483.7 605.55 1484.87 604.289C1487.31 601.671 1490.5 602.235 1491.94 605.623C1492.71 607.441 1493.24 609.349 1493.53 611.301C1495.71 626.064 1492.68 639.774 1484.91 652.457C1479.45 661.393 1472.6 669.153 1464.24 675.479C1459.52 679.052 1454.59 682.339 1449.71 685.69C1443.59 689.88 1437.37 693.893 1431.34 698.184C1426.08 701.911 1421.61 706.655 1418.22 712.136C1415.18 717.029 1413.25 722.264 1412.86 728.106C1412.36 735.759 1410.76 743.236 1408.64 750.616C1407.39 754.978 1405.38 758.937 1402.38 762.259C1398.91 766.099 1395.15 769.668 1391.46 773.316C1389.06 775.699 1386.11 776.612 1382.73 776.66C1369.64 776.841 1356.56 777.263 1343.48 777.369C1318.04 777.569 1292.6 777.581 1267.17 777.736C1231.37 777.949 1195.56 778.209 1159.76 778.465C1124.45 778.716 1089.14 778.979 1053.84 779.252C1019.26 779.519 984.696 779.811 950.125 780.064C918.025 780.302 885.925 780.494 853.825 780.732C815.304 781.018 776.786 781.337 738.265 781.627C702.464 781.895 666.658 782.138 630.853 782.402C595.789 782.663 560.729 782.946 525.664 783.204C490.356 783.46 455.043 783.687 419.734 783.941C383.929 784.201 348.128 784.473 312.322 784.746C277.755 785.012 243.183 785.3 208.616 785.554C176.268 785.789 143.923 785.97 111.58 786.202C72.3162 786.485 33.0586 786.769 -6.20386 787.102C-34.349 787.343 -62.4979 787.675 -90.644 787.923C-93.607 787.945 -96.569 787.801 -99.5158 787.49C-100.979 787.331 -102.393 786.872 -103.671 786.141C-106.937 784.239 -107.23 779.747 -104.306 777.376C-103.36 776.611 -102.227 776.071 -101.159 775.472C-82.2478 764.835 -67.0956 750.286 -55.769 731.779C-49.0565 720.81 -43.6093 709.17 -38.1232 697.571C-36.1276 693.356 -34.8498 688.792 -33.357 684.344C-18.6349 640.502 2.48485 599.901 28.5171 561.759C41.8907 542.161 55.7971 522.997 71.3426 505.037C86.0918 488 102.386 472.575 119.211 457.64C148.509 431.633 181.924 412.299 217.495 396.401C221.548 394.591 225.687 392.969 229.809 391.319C245.152 385.175 260.593 379.263 275.831 372.872C293.363 365.524 310.43 357.167 327.31 348.421C336.192 343.821 343.593 337.333 350.917 330.682C364.567 318.288 375.495 303.711 385.406 288.276C394.47 274.144 403.603 260.056 412.804 246.012C421.785 232.313 432.593 220.128 444.429 208.853C447.638 205.799 451.094 202.957 454.678 200.35C466.484 191.772 478.917 184.215 492.064 177.845C507.186 170.516 522.798 164.4 538.68 158.948C546.845 156.143 554.97 153.222 563.168 150.523C574.718 146.723 585.6 141.517 596.014 135.309C606.148 129.267 614.698 121.619 620.378 111.055C623.067 106.055 626.063 101.225 628.773 96.2362C639.271 76.8929 653.233 60.348 669.781 45.998C686.287 31.6857 705.512 22.3648 726.443 16.4548C733.8 14.3734 741.282 12.7591 748.842 11.6195C755.656 10.5953 762.393 8.94891 769.075 7.23958C772.449 6.37813 774.833 7.47506 777.029 9.71056C778.158 10.8637 777.851 13.575 776.392 14.2775C774.86 15.0149 773.211 15.6263 771.549 15.9432C748.915 20.2534 730.512 32.2177 713.99 47.6201C706.83 54.2966 701.644 62.3665 697.495 71.1321C692.514 81.6488 688.576 92.4852 686.437 104.01C684.592 113.954 681.921 123.739 678.343 133.228C673.498 146.073 666.073 157.38 657.593 168.084C648.247 179.887 636.864 189.224 623.63 196.269C614.921 200.902 606.003 205.139 597.173 209.54C588.562 213.835 579.901 218.029 571.341 222.424C564.92 225.72 559.313 230.179 554.293 235.35C552.747 236.938 551.347 238.673 549.928 240.381C543.818 247.764 541.961 256.111 544.458 265.367C546.462 272.775 547.134 280.48 546.444 288.122C545.267 301.422 539.834 312.291 528.244 319.558C525.529 321.26 522.737 322.846 519.979 324.481C515.52 327.116 510.967 329.609 506.622 332.424C503.695 334.322 500.691 335.795 497.356 336.892C486.949 340.317 477.376 345.394 469.066 352.61C466.661 354.697 464.593 357.19 462.49 359.6C461.877 360.3 461.371 361.357 461.366 362.254C461.36 363.097 461.924 364.095 462.535 364.735C462.943 365.161 464.108 365.455 464.54 365.182C467.024 363.607 469.576 362.054 471.754 360.102C476.763 355.618 482.31 351.98 488.222 348.853C489.09 348.395 490.018 348.051 490.946 347.719C491.979 347.349 492.226 348.176 492.268 348.854C493.381 366.764 486.111 381.073 472.875 392.499C467.287 397.321 461.072 401.435 455.012 405.684C446.926 411.352 438.623 416.713 431.252 423.344C423.852 430 417.524 437.536 412.413 446.074C410.244 449.697 408.465 453.478 408.437 457.858C408.412 461.688 410.427 464.574 414.182 465.357C416.064 465.75 418.111 465.813 420.016 465.549C424.942 464.873 429.547 463.047 434.048 461C459.207 449.559 479.339 432.244 494.461 409.114C497.431 404.566 500.362 399.985 503.109 395.304C515.99 373.346 532.446 354.473 551.778 337.974C562.506 328.818 573.481 320.052 585.605 312.802C586.866 312.046 588.092 311.037 589.467 310.727C590.479 310.497 592.07 310.875 592.733 311.598C593.404 312.335 593.517 313.854 593.375 314.971C593.268 315.844 592.496 316.71 591.849 317.418C590.851 318.509 589.752 319.516 588.618 320.469C579.032 328.507 571.784 338.478 565.131 348.924C560.183 356.692 556.7 365.132 554.519 374.06C552.298 383.163 550.367 392.34 548.336 401.493C546.568 409.469 544.171 417.23 540.791 424.68C537.076 432.865 531.971 440.071 525.837 446.607C519.482 453.377 511.943 458.4 503.509 462.171C495.625 465.693 487.723 469.181 479.895 472.825C477.222 474.068 474.665 475.61 472.219 477.255C471.051 478.044 470.063 479.29 469.383 480.542C468.996 481.253 469.075 482.621 469.535 483.275C469.986 483.911 471.335 484.478 472.04 484.261C474.615 483.462 477.116 482.401 479.58 481.299C483.856 479.385 488.08 477.354 492.338 475.399C492.745 475.214 493.371 475.028 493.663 475.211C493.955 475.395 494.167 476.101 494.061 476.476C490.346 489.518 486.56 502.536 482.841 515.576C478.476 530.895 469.465 542.93 456.908 552.479C450.002 557.729 442.704 562.43 434.683 565.692C428.777 568.094 422.573 569.909 416.356 571.391C397.358 575.918 378.182 579.248 358.53 578.855C356.368 578.814 354.175 579.336 352.039 579.809C351.523 579.922 350.903 580.842 350.848 581.436C350.798 582.026 351.255 582.873 351.76 583.248C352.517 583.811 353.486 584.292 354.409 584.394C358.32 584.83 362.207 585.237 366.193 585.124C380.559 584.713 394.682 582.544 408.708 579.668C411.588 579.076 413.506 579.877 415.257 581.822C417.985 584.841 419.642 588.328 419.89 592.466C420.226 598.007 419.376 603.267 416.842 608.266C414.141 613.608 410.815 618.526 406.396 622.538C400.552 627.846 394.465 632.887 388.46 638.015C384.515 641.379 380.448 644.605 376.576 648.053C371.384 652.673 366.785 657.853 363.372 663.937C360.242 669.524 358.917 675.423 361.305 681.718C362.949 686.047 365.537 689.645 369.894 691.409C373.058 692.689 376.438 694.017 379.783 694.193C402.524 695.39 422.664 688.804 439.471 673.129C445.155 667.827 449.208 661.261 451.789 653.974C454.585 646.075 456.878 637.998 459.349 629.987C461.385 623.386 463.128 616.688 465.418 610.178C471.14 593.915 480.048 579.5 491.241 566.418C511.7 542.513 537.089 525.358 565.246 511.938C580.633 506.561 593.786 497.373 606.372 487.372C611.954 482.938 616.868 477.663 622.067 472.751C623.142 471.736 624.071 470.57 625.188 469.609C626.199 468.738 628.247 468.805 629.386 469.58C630.512 470.345 630.854 471.496 630.856 472.781C630.856 473.27 630.843 473.784 630.7 474.248C627.147 486.051 624.251 498.079 618.013 508.917C611.833 519.649 604.976 529.864 596.737 539.151C592.481 543.95 588.424 548.937 584.473 553.99C576.17 564.621 572.108 576.849 570.821 590.199C570.208 596.569 569.083 602.904 567.888 609.199C565.234 623.164 558.656 635.15 549.007 645.497C547.154 647.484 545.19 649.362 543.323 651.336C543.023 651.653 542.955 652.197 542.782 652.637C543.217 652.735 543.716 653.013 544.081 652.896C546.421 652.127 548.828 651.472 551.031 650.409C562.423 644.909 572.998 638.147 582.511 629.76C601.833 612.729 615.537 591.928 624.346 567.8C631.37 548.557 638.29 529.275 645.463 510.09C652.12 492.285 659.005 474.563 667.995 457.756C674.762 445.101 682.438 433.027 690.957 421.488C704.02 403.792 720.031 389.257 738.554 377.476C746.05 372.711 753.574 367.936 761.39 363.742C767.025 360.717 770.54 356.334 772.468 350.518C773.627 347.017 774.474 343.395 775.215 339.775C780.925 312.025 793.497 287.736 812.337 266.713C823.639 254.098 836.753 243.697 852.106 236.311C858.998 232.995 865.92 229.738 872.829 226.452C877.063 224.438 881.313 222.453 885.524 220.397C893.825 216.35 901.061 210.866 907.502 204.259C912.38 199.253 916.425 193.719 919.182 187.274C920.831 183.415 922.615 179.614 924.21 175.734C930.896 159.449 941.166 145.727 953.9 133.713C976.074 112.797 1001.91 98.4465 1031.24 90.3291C1038.89 88.2118 1046.69 87.1246 1054.62 86.8591C1058.06 86.7428 1061.49 86.205 1064.94 85.9676C1068.38 85.7283 1071.83 85.6837 1075.28 85.4444C1078.99 85.1924 1081.23 87.3853 1083.2 90.0404C1084.19 91.3669 1083.79 93.742 1082.26 94.6218C1080.35 95.7159 1078.32 96.6044 1076.26 97.4126C1070.75 99.5803 1065.09 101.399 1059.71 103.823C1039.69 112.83 1021.99 125.24 1006.25 140.527C995.226 151.234 987.263 163.805 982.477 178.41C978.941 189.197 975.599 200.054 971.724 210.717C966.121 226.137 957.981 240.259 948.242 253.408C937.619 267.753 923.877 278.617 908.253 286.941C899.323 291.697 893.937 298.652 891.193 308.149C888.362 317.943 887.061 327.933 886.941 338.094C886.873 343.777 886.915 349.459 886.838 355.138C886.793 358.348 886.642 361.555 886.474 364.762C886.171 370.535 884.492 375.865 881.58 380.883C874.091 393.795 865.035 405.47 854.083 415.6C845.74 423.321 836.921 430.499 827.429 436.776C823.319 439.492 818.916 441.76 814.709 444.338C813.268 445.222 811.942 446.345 810.752 447.546C810.388 447.912 810.422 449.01 810.692 449.572C810.962 450.135 811.738 450.769 812.319 450.798C813.511 450.852 814.841 450.791 815.894 450.302C819.686 448.536 823.539 446.819 827.088 444.631C838.473 437.605 848.76 429.119 858.677 420.176C859.777 419.183 860.85 418.159 861.89 417.104C863.21 415.767 864.812 415.417 866.623 415.512C871.759 415.782 876.238 417.616 879.989 421.128C884.215 425.083 887.226 429.823 889.102 435.313C892.221 444.416 892.469 453.715 890.91 463.095C888.794 475.871 884.106 487.796 878.65 499.462C870.333 517.233 859.422 533.375 847.554 548.901C842.457 555.567 837.123 562.055 831.892 568.627C827.869 573.68 823.111 577.989 818.094 582.011C808.069 590.049 797.711 597.621 786.575 604.081C783.8 605.691 781.132 607.482 778.456 609.251C777.647 609.784 776.835 610.432 776.298 611.215C775.948 611.723 775.805 612.722 776.083 613.222C776.378 613.758 777.296 614.307 777.89 614.256C779.337 614.13 780.859 613.886 782.164 613.283C785.517 611.73 788.94 610.22 792.028 608.219C799.686 603.25 807.543 598.478 814.602 592.739C819.906 588.42 825.341 588.178 831.238 589.453C839.312 591.195 843.738 597.364 843.296 605.708C843.043 610.469 841.412 614.864 839.386 619.126C834.889 628.569 828.779 636.941 822.004 644.823C817.014 650.625 811.795 656.232 806.546 661.805C801.975 666.657 797.131 671.253 792.592 676.138C790.564 678.319 787.446 679.777 787.172 683.314C790.297 683.819 792.843 682.092 795.56 681.098C803.034 678.366 809.917 674.461 816.279 669.754C825.208 663.15 833.929 656.255 842.751 649.507C852.767 641.849 863.056 634.596 874.543 629.255C878.118 627.592 881.765 626.059 885.476 624.744C888.017 623.843 890.698 623.113 893.37 622.864C898.276 622.408 902.603 623.582 905.599 628.077C907.846 631.45 908.005 631.339 910.374 627.95C915.394 620.754 918.678 612.812 920.268 604.206C921.882 595.473 923.251 586.697 924.869 577.964C928.049 560.819 934.135 544.709 942.578 529.493C945.451 524.315 948.615 519.294 951.766 514.276C965.191 492.896 983.204 476.293 1005.15 464.022C1017.85 456.919 1030.88 450.394 1043.8 443.697C1058.7 435.978 1073.75 428.544 1088.55 420.632C1104.48 412.113 1119.36 401.946 1133.17 390.256C1135.6 388.189 1137.84 385.879 1140.14 383.665C1140.31 383.512 1140.48 383.178 1140.41 383.035C1140.33 382.859 1140.02 382.706 1139.78 382.695C1139.31 382.665 1138.8 382.661 1138.33 382.775C1131.99 384.309 1125.58 383.863 1119.17 383.595C1118.43 383.563 1117.69 383.493 1116.96 383.364C1103.38 380.95 1097.36 370.999 1098.46 359.799C1098.94 354.836 1100.37 350.145 1102.43 345.609C1106.79 335.965 1113.63 328.226 1121.17 321.026C1129.24 313.324 1138.15 306.681 1147.52 300.687C1157.71 294.173 1168.1 287.948 1178.21 281.324C1186.26 276.057 1194.25 270.638 1201.9 264.81C1210.96 257.905 1219.14 250.021 1225.6 240.512C1227.99 237.009 1229.87 233.303 1230.92 229.18C1237.28 204.448 1250.15 183.33 1267.04 164.504C1279.64 150.459 1294.1 138.557 1309.64 127.892C1325.13 117.253 1341.56 108.19 1357.98 99.1064C1372.45 91.1044 1387.02 83.2486 1401.16 74.6971C1417.08 65.0652 1431.33 53.2491 1443.53 39.0977C1449.37 32.3408 1454.46 25.0664 1458.69 17.2107C1460.41 14.0033 1462.18 10.7765 1461.13 6.72795C1460.52 4.4033 1462.26 2.53989 1463.87 0.968162C1465.21 -0.343875 1468.22 0.385795 1468.91 2.16586C1469.25 3.06898 1469.52 4.05736 1469.55 5.02152C1469.74 9.46346 1469.86 13.9073 1469.96 18.3502C1470.16 27.5984 1468.23 36.4804 1465.44 45.2402C1460.09 62.069 1452.13 77.6216 1442.68 92.4706C1434.04 106.053 1424.07 118.607 1413.33 130.572C1397.97 147.684 1381.33 163.517 1364.66 179.326C1358.39 185.27 1352.32 191.414 1346.29 197.612C1336.07 208.141 1329.86 220.942 1325.85 234.896C1324.21 240.584 1322.79 246.337 1321.38 252.089C1316.01 274.15 1305.17 293.29 1290.57 310.501C1281.26 321.477 1270.99 331.375 1259.37 339.902C1255.75 342.568 1251.91 344.604 1247.52 345.726C1235.81 348.719 1224.2 352.094 1212.11 353.27C1210.69 353.408 1209.26 354.03 1207.95 354.677C1207.44 354.929 1206.98 355.864 1207 356.466C1207.03 357.081 1207.55 357.974 1208.08 358.214C1209.16 358.698 1210.4 358.966 1211.61 359.066C1217.59 359.569 1223.39 358.179 1229.18 356.965C1233.76 356.006 1238.28 354.748 1242.81 353.561C1244.86 353.026 1246.64 353.341 1248.4 354.574C1258.51 361.64 1264.34 371.273 1265.58 383.537C1266.93 396.858 1264.69 409.598 1258.92 421.716C1253.01 434.127 1244.76 444.847 1235.25 454.654C1226.98 463.192 1217.83 470.726 1208.23 477.712C1193.82 488.194 1178.47 497.138 1162.66 505.303C1152.13 510.738 1141.56 516.063 1131.11 521.666C1117.57 528.944 1104.91 537.509 1094.21 548.694C1090.99 552.078 1088.04 555.753 1085.12 559.409C1084.4 560.299 1084.25 561.639 1083.85 562.776C1083.65 562.913 1083.47 563.048 1083.28 563.185C1083.43 562.947 1083.57 562.753 1083.69 562.554Z" fill="#CEFD3B"/>
<path d="M1040.09 267.778C1037.38 267.761 1034.66 267.716 1031.95 267.733C1030.23 267.743 1028.45 267.627 1026.8 267.99C1025.74 268.222 1024.66 269.065 1023.95 269.934C1023.29 270.739 1024.82 272.463 1026.59 272.878C1033.38 274.462 1040.23 274.82 1047.17 274.169C1056.51 273.293 1065.78 272.006 1074.93 269.922C1076.53 269.556 1077.84 269.714 1079.07 270.697C1085.68 275.994 1090.65 282.391 1090.73 291.227C1090.77 295.346 1089.96 299.578 1088.9 303.588C1086.93 311.063 1083.02 317.671 1078.67 324.007C1071.46 334.512 1062.33 343.099 1052.14 350.646C1041.61 358.452 1030.4 365.155 1018.87 371.386C1004.77 379.014 990.673 386.66 976.645 394.435C972.334 396.825 968.283 399.671 964.106 402.299C946.487 413.39 934.857 429.229 927.501 448.458C926.708 450.529 926.018 452.645 925.142 454.678C924.538 456.077 922.919 456.794 921.463 456.561C920.013 456.328 918.706 455.126 918.685 453.543C918.626 449.352 918.33 445.1 918.874 440.972C920.068 431.931 921.221 422.831 923.285 413.964C928.994 389.416 939.983 367.658 958.449 350.033C970.62 338.414 984.667 330.028 1000.65 324.815C1003.46 323.899 1006.26 322.949 1009.03 321.891C1010.4 321.37 1011.79 320.744 1012.92 319.829C1013.52 319.34 1013.75 318.133 1013.71 317.27C1013.7 316.848 1012.66 316.099 1012.12 316.133C1009.45 316.293 1006.68 316.32 1004.13 317.044C999.866 318.246 995.739 319.917 991.574 321.438C989.723 322.114 987.854 322.79 986.091 323.66C984.085 324.649 982.322 324.292 980.482 323.309C969.118 317.251 962.76 308.044 962.124 294.969C961.317 278.439 967.581 264.614 978.089 252.414C987.544 241.436 999.082 233.033 1011.54 225.797C1023.76 218.71 1036.82 213.52 1049.84 208.208C1056.69 205.415 1063.53 202.597 1070.35 199.723C1079.02 196.069 1087.21 191.533 1094.85 186.022C1100.91 181.65 1106.13 176.449 1110.62 170.502C1116 163.403 1120.82 155.963 1125.04 148.107C1129.13 140.492 1133.45 133.014 1138.75 126.143C1148.84 113.033 1161.57 102.964 1175.66 94.5521C1186.69 87.9677 1198.02 81.987 1210.41 78.2728C1211.59 77.922 1212.74 77.3949 1213.93 77.2001C1216.78 76.735 1219.25 79.5839 1218.39 82.3911C1217.96 83.7806 1217.3 85.176 1216.44 86.3417C1214.69 88.7187 1212.83 91.0424 1210.81 93.211C1195.73 109.457 1183.63 127.693 1174.67 147.955C1171.59 154.934 1169.15 162.203 1166.49 169.373C1165.29 172.61 1164.33 175.932 1163.21 179.197C1155.63 201.184 1142.89 219.677 1125.35 234.857C1117.5 241.639 1109.46 248.186 1100.71 253.8C1096.1 256.752 1091.22 258.982 1085.95 260.491C1070.94 264.769 1055.76 267.811 1040.09 267.778ZM574.003 416.605C573.175 416.443 572.695 416.358 572.218 416.252C570.784 415.931 569.85 413.896 570.729 412.735C571.45 411.781 572.309 410.809 573.324 410.237C574.59 409.523 576.047 408.956 577.481 408.758C583.337 407.958 587.215 404.257 590.696 399.983C597.106 392.126 602.621 383.632 607.583 374.821C613.266 364.729 618.573 354.421 623.999 344.183C631.403 330.215 639.615 316.77 649.145 304.128C665.415 282.544 685.21 265.033 708.919 252.02C715.183 248.582 721.48 245.174 727.936 242.118C734.464 239.029 740.383 235.127 745.807 230.403C746.919 229.438 748.061 228.489 749.284 227.675C750.583 226.809 752.573 227.054 753.231 228.326C753.745 229.315 753.937 230.649 753.768 231.754C753.636 232.623 752.843 233.485 752.154 234.164C748.661 237.621 745.223 241.053 741.081 243.878C731.834 250.184 724.133 258.22 717.857 267.482C714.122 272.989 710.707 278.708 707.632 284.611C701.947 295.547 696.553 306.635 691.172 317.727C682.962 334.655 673.233 350.622 661.514 365.355C651.763 377.611 640.355 388.07 627.393 396.839C620.62 401.422 613.403 405.2 605.659 407.781C597.49 410.505 589.196 412.864 580.924 415.264C578.567 415.944 576.096 416.209 574.003 416.605ZM-22.4302 766.273H1421.01V908.713H-22.4302V766.273Z" fill="#CEFD3B"/>
</svg>
