<svg width="860" height="503" viewBox="0 0 860 503" fill="none" xmlns="http://www.w3.org/2000/svg">
<path d="M192.938 397.109C192.938 475.552 168.128 502.629 96.4752 502.629C24.8241 502.629 0 475.552 0 397.109V8.34553H34.4455V358.226C34.4455 390.854 52.3658 404.041 96.4618 404.041C140.558 404.041 158.478 390.854 158.478 358.226V8.34553H192.938V397.109ZM319.241 494.303H222.779V395.728H319.241C370.226 395.728 381.257 382.542 381.257 349.914V8.34553H415.717V388.769C415.717 466.535 398.487 494.303 319.241 494.303ZM540.635 494.303H444.173V395.728H540.635C591.62 395.728 602.651 382.542 602.651 349.914V8.34553H637.111V388.769C637.096 466.535 619.866 494.303 540.635 494.303ZM762.807 502.63C683.56 502.63 666.345 474.863 666.345 397.11V105.54C666.345 27.7882 683.575 0.0197754 762.807 0.0197754C842.053 0.0197754 859.268 27.7871 859.268 105.54V397.11C859.268 474.863 842.053 502.63 762.807 502.63ZM762.807 98.5958C711.821 98.5958 700.79 111.781 700.79 144.41V358.226C700.79 390.854 711.821 404.041 762.807 404.041C813.792 404.041 824.823 390.854 824.823 358.226V144.424C824.823 111.796 813.792 98.5948 762.807 98.5948V98.5958Z" fill="black"/>
</svg>
