<svg width="815" height="377" viewBox="0 0 815 377" fill="none" xmlns="http://www.w3.org/2000/svg">
<path d="M809.247 114.949H665.618C665.18 114.948 664.749 114.845 664.358 114.647C663.968 114.449 663.63 114.163 663.371 113.81L627.87 65.4431C609.494 40.428 593.336 23.3569 579.82 14.7179C572.855 10.2549 563.534 6.88553 552.139 4.68771C540.996 2.54917 527.464 1.45898 511.954 1.45898H488.973C487.026 1.45898 485.664 3.40459 486.361 5.24094L486.947 6.79138L499.576 40.3339L499.861 41.0777C500.062 41.608 500.419 42.0646 500.886 42.3866C501.353 42.7087 501.907 42.8809 502.474 42.8804H530.107C552.122 42.8804 569.041 45.206 580.358 49.7958C591.499 54.3041 603.686 65.1421 616.617 81.9924L638.347 110.44C639.756 112.276 638.443 114.933 636.131 114.933H5.12718C4.38444 114.934 3.67248 115.23 3.14728 115.755C2.62208 116.28 2.32649 116.991 2.32526 117.734V148.08C2.32679 148.823 2.62253 149.534 3.14769 150.059C3.67285 150.584 4.38464 150.879 5.12718 150.88H158.173C158.885 150.88 159.566 151.15 160.073 151.624C170.772 161.672 176.184 171.907 176.184 182.066C176.184 194.311 170.914 203.108 160.089 208.994C148.63 215.228 127.802 218.518 98.1732 218.788L96.2746 218.804C94.1691 218.819 92.8391 221.066 93.8366 222.917L94.7388 224.595L110.725 254.387L111.056 255.02C111.301 255.475 111.667 255.854 112.114 256.114C112.561 256.373 113.072 256.504 113.588 256.491L114.301 256.475C132.914 255.985 148.819 253.374 161.64 248.707C162.099 248.541 162.594 248.499 163.075 248.585C163.555 248.671 164.005 248.882 164.378 249.197C171.23 254.91 176.517 261.174 180.109 267.867C184.192 275.43 186.25 283.831 186.25 292.787C186.25 304.241 181.993 313.134 173.257 319.969C164.22 327.041 154.075 330.491 142.219 330.491C130.176 330.491 118.02 325.538 106.119 315.792C93.8215 305.729 80.5106 289.385 66.5986 267.219L36.5913 219.642L36.0053 218.709C35.6216 218.099 35.0167 217.661 34.3173 217.487C33.618 217.313 32.8784 217.417 32.2535 217.776L31.3048 218.329L23.0107 223.076L21.9666 223.63C21.6403 223.817 21.3552 224.068 21.1281 224.368C20.9011 224.668 20.7368 225.01 20.6453 225.375C20.5537 225.74 20.5366 226.119 20.595 226.491C20.6534 226.862 20.7862 227.218 20.9854 227.537L21.6179 228.55L52.2123 277.502C75.6195 314.873 94.0436 338.085 108.54 348.48C123.101 358.922 138.627 364.223 154.676 364.223C172.987 364.223 188.418 358.669 200.542 347.705C212.808 336.645 219.028 322.421 219.028 305.413C219.028 292.043 215.372 279.291 208.187 267.535C202.394 258.073 194.179 249.055 183.718 240.67C183.392 240.41 183.128 240.08 182.945 239.705C182.763 239.33 182.667 238.919 182.664 238.501C182.661 238.084 182.751 237.672 182.928 237.294C183.105 236.916 183.364 236.583 183.687 236.318C188.894 232.031 193.088 227.063 196.221 221.494C200.748 213.424 203.043 203.947 203.043 193.315C203.043 178.726 198.548 166.053 189.622 155.485C188.086 153.665 189.368 150.88 191.742 150.88H562.663C563.031 150.879 563.396 150.952 563.736 151.092C564.076 151.233 564.385 151.439 564.645 151.699C564.906 151.959 565.112 152.268 565.253 152.608C565.393 152.949 565.465 153.313 565.465 153.681V187.176C565.463 187.918 565.167 188.63 564.642 189.154C564.117 189.679 563.405 189.975 562.663 189.976H449.77C447.269 189.976 446.034 193.014 447.807 194.755L449.801 196.732C474.27 220.798 488.814 236.983 493.009 244.831C497.092 252.425 499.165 258.944 499.165 264.197C499.165 271.031 497.108 276.332 492.882 280.383C488.593 284.496 483.165 286.489 476.263 286.489C466.688 286.489 455.262 280.351 442.346 268.215C432.122 258.628 421.265 242.457 410.075 220.164L410.044 220.101L397.255 192.27L396.955 191.606C396.734 191.12 396.378 190.708 395.929 190.419C395.48 190.13 394.957 189.976 394.423 189.976H288.54C286.039 189.976 284.805 193.014 286.578 194.755L288.588 196.732C313.056 220.798 327.601 236.983 331.796 244.831C335.879 252.425 337.952 258.944 337.952 264.197C337.952 271.031 335.894 276.332 331.669 280.383C327.379 284.496 321.951 286.489 315.05 286.489C305.475 286.489 294.048 280.351 281.133 268.215C267.839 255.748 253.563 232.268 238.717 198.457L238.194 197.254C238.033 196.891 237.797 196.566 237.501 196.301C237.205 196.037 236.856 195.838 236.477 195.718C236.099 195.598 235.699 195.561 235.305 195.607C234.91 195.654 234.53 195.784 234.19 195.988L233.067 196.653L225.169 201.4L224.362 201.89C223.806 202.221 223.383 202.736 223.167 203.345C222.95 203.955 222.953 204.621 223.175 205.228L223.491 206.115C236.374 242.189 251.442 270.906 268.282 291.458C276.844 301.932 285.691 309.922 294.554 315.222C303.639 320.649 312.993 323.402 322.362 323.402C337.461 323.402 350.123 318.402 359.999 308.53C369.859 298.673 374.876 286.141 374.876 271.301C374.876 263.184 372.486 254.609 367.786 245.811C365.096 240.765 361.597 235.559 357.325 230.258C355.853 228.439 357.15 225.717 359.493 225.717H390.307C391.431 225.717 392.46 226.398 392.887 227.442C403.776 253.611 416.073 275.129 429.463 291.474C438.026 301.948 446.873 309.937 455.736 315.238C464.821 320.665 474.19 323.418 483.56 323.418C498.659 323.418 511.32 318.418 521.197 308.545C531.072 298.688 536.074 286.158 536.074 271.316C536.074 263.2 533.684 254.625 528.999 245.828C526.309 240.78 522.795 235.574 518.538 230.258C517.066 228.439 518.363 225.717 520.706 225.717H562.663C563.031 225.717 563.396 225.789 563.736 225.929C564.076 226.07 564.385 226.276 564.645 226.536C564.906 226.797 565.112 227.106 565.253 227.446C565.393 227.786 565.465 228.15 565.465 228.518V347.167C565.465 347.863 565.733 348.543 566.209 349.064L566.509 349.397L589.41 374.254L589.759 374.633C590.297 375.202 591.041 375.535 591.817 375.535H601.771C602.514 375.534 603.225 375.238 603.751 374.713C604.276 374.189 604.572 373.477 604.573 372.735V153.712C604.574 152.97 604.87 152.259 605.395 151.734C605.92 151.209 606.631 150.914 607.374 150.913H644.251C644.994 150.914 645.705 151.209 646.23 151.734C646.755 152.259 647.051 152.97 647.052 153.712V344.571C647.052 345.236 647.29 345.885 647.733 346.391L648.018 346.724L671.711 374.142L672.059 374.539C672.581 375.155 673.356 375.503 674.164 375.503H683.106C683.849 375.502 684.561 375.207 685.086 374.682C685.611 374.157 685.907 373.445 685.908 372.702V153.681C685.909 152.939 686.205 152.227 686.73 151.702C687.255 151.177 687.966 150.882 688.709 150.88H810.434C811.177 150.879 811.889 150.583 812.413 150.059C812.938 149.534 813.234 148.822 813.235 148.08V117.734C813.234 116.992 812.939 116.28 812.414 115.755C811.889 115.23 811.177 114.934 810.434 114.933L809.247 114.949V114.949Z" fill="#FFFCF7" stroke="black" stroke-width="2.6806" stroke-miterlimit="10"/>
</svg>
