<svg width="434" height="136" viewBox="0 0 434 136" fill="none" xmlns="http://www.w3.org/2000/svg">
<g clip-path="url(#clip0_5436_7)">
<rect width="434" height="136" fill="none"/>
<path d="M434.005 654.971H0.397089L0 136.029C0 136.029 22.5932 130.009 25.6113 119.448C35.9595 83.2385 77.8913 93.2238 77.8913 93.2238C75.8181 84.1929 84.9661 74.0157 92.9159 68.1863C99.0947 63.6537 106.488 60.2453 114.556 58.2492C125.611 55.5128 138.556 54.8759 149.73 57.4958C151.246 57.8514 152.772 58.2361 154.208 58.7565C154.94 59.0247 156.98 59.6556 157.242 60.3477C150.612 42.2436 163.612 26.012 188.818 21.8491C214.024 17.6862 216.152 0 216.152 0C216.152 0 218.273 17.6933 243.488 21.8491C268.694 26.011 281.702 42.2436 275.063 60.3477C275.317 59.6546 277.366 59.0177 278.096 58.7565C279.534 58.2361 281.058 57.8524 282.576 57.4948C293.749 54.8829 306.694 55.5128 317.748 58.2492C325.809 60.2453 333.211 63.6537 339.39 68.1863C347.338 74.0227 356.487 84.1919 354.414 93.2238C354.414 93.2238 396.338 83.2315 406.693 119.448C409.711 130.009 433.584 136.269 433.584 136.269L434.005 654.971Z" fill="#CFFD3C" stroke="black" stroke-width="1.25"/>
</g>
<defs>
<clipPath id="clip0_5436_7">
<rect width="434" height="136" fill="none"/>
</clipPath>
</defs>
</svg>
